<svg width="100" height="100" viewBox="0 0 100 100" fill="none" xmlns="http://www.w3.org/2000/svg">
    <path d="M1.4652 36.6109L41.7145 57.0452L63.4016 98.5616C63.8656 99.4503 64.7829 100 65.7734 100C65.8448 100 65.9162 99.9982 65.9876 99.9911C67.0584 99.9054 67.9739 99.188 68.313 98.1689L99.8621 3.5234C100.183 2.56148 99.9335 1.50139 99.216 0.783962C98.5004 0.0665309 97.4385 -0.18332 96.4766 0.137918L1.83106 31.6835C0.806666 32.0243 0.0874483 32.947 0.00713891 34.0249C-0.0713858 35.1029 0.503275 36.1219 1.4652 36.6109ZM65.2291 90.4932L47.4075 56.3759L91.1976 12.5877L65.2291 90.4932ZM87.4159 8.79884L44.0096 52.2034L9.60322 34.7352L87.4159 8.79884Z" fill="#EC4C4C"/>
</svg>
